<svg width="216" height="237" viewBox="0 0 216 237" fill="none" xmlns="http://www.w3.org/2000/svg">
    <ellipse cx="81.1644" cy="231.156" rx="81.1644" ry="5.84384" fill="#747474" fill-opacity="0.1"/>
    <path d="M92.5972 0.25558C97.0165 -0.40267 102.924 0.306958 107.252 1.28949C117.371 3.58609 128.695 10.0227 134.777 18.5329C137 21.6434 138.281 25.2972 140.381 28.4406C141.483 30.0882 143.682 29.601 145.503 29.9607C148.464 30.5457 150.941 32.4061 152.571 34.9077C154.482 37.8408 155.236 41.4684 155.494 44.9114C156.728 61.3981 146.933 59.0758 145.664 64.8818C145.955 65.9123 147.419 66.7048 148.275 67.3723C151.704 70.0475 153.807 76.4652 154.949 80.6599C156.624 86.8178 156.793 91.4367 153.574 97.0338C156.74 104.144 156.44 111.401 153.839 118.634C155.943 119.688 157.878 120.764 159.798 122.14C163.675 114.657 169.841 93.8681 175.561 89.6166C181.984 89.5865 209.387 87.908 213.68 89.4969C214.489 89.7959 215.115 90.5623 215.409 91.3524C216.888 95.3242 207.916 111.424 205.884 115.623C208.301 117.888 210.319 120.725 210.65 124.121C210.806 125.716 210.58 127.338 209.525 128.595C207.618 130.867 208.183 131.683 207.479 134.32C206.958 136.277 205.309 137.073 203.692 138.036C203.139 139.916 202.472 142.257 200.983 143.636C198.996 145.476 196.719 145.31 194.224 145.172C193.146 146.858 191.832 149.493 189.964 150.402C188.612 151.061 160.541 151.491 157.008 151.369C155.209 151.307 153.089 151.131 151.395 150.477C150.702 150.21 150.328 149.516 150.091 148.848C149.378 146.847 150.504 144.502 151.346 142.712C148.586 141.618 146.204 140.255 143.831 138.469C145.26 149.216 150.984 180.269 148.042 189.851C144.942 199.947 131.324 194.217 127.444 196.246C126.874 199.5 126.759 202.695 125.816 205.894C128.154 205.846 130.494 205.839 132.832 205.873C135.489 206.482 138.079 207.671 140.667 208.539C145.297 210.094 152.896 211.334 156.164 215.164C157.801 217.081 156.784 218.59 157.374 220.66C158.06 223.063 160.074 223.612 159.816 226.654C159.695 228.092 158.885 229.291 157.777 230.175C147.911 238.049 120.399 233.003 108.329 231.468C100.806 237.393 89.5189 237.193 80.3856 236.867C73.1754 236.609 53.8166 234.389 49.143 228.999C48.3508 228.086 47.8868 227.004 48.0737 225.786C48.3804 223.786 49.6254 222.887 51.1422 221.777C52.3343 217.11 55.1437 214.563 57.5278 210.569C59.48 207.299 63.1999 198.86 62.5248 195.096C61.8889 191.55 51.0078 190.84 48.0814 189.936C46.8588 189.559 45.7191 188.786 44.6503 188.096C43.3529 188.372 41.6944 188.528 40.3737 188.316C38.7035 188.048 37.3445 186.212 36.381 184.961C34.9263 184.448 33.4037 183.96 32.1121 183.097C28.9295 180.972 27.1763 177.588 26.4798 173.906C24.8955 165.531 27.1137 158.147 31.8621 151.268C31.8981 147.856 31.8534 144.443 31.901 141.031C32.132 122.308 39.8839 104.463 53.4143 91.5041C51.1146 90.9496 48.9954 90.2976 46.9966 88.9918C42.0919 85.7878 40.66 80.7743 39.5364 75.3682C36.8183 73.1487 34.7021 70.6495 33.3566 67.3767C31.5267 62.9231 31.7088 57.6246 33.5862 53.2127C34.9399 50.0315 37.1581 47.2942 40.4091 45.9865C40.5144 42.4994 40.9294 39.1035 42.6986 36.025C45.3274 31.4497 49.7196 29.8516 54.5418 28.5598C56.3027 23.89 58.8422 19.5513 62.052 15.7278C69.3987 6.93695 81.2214 1.2604 92.5972 0.25558ZM150.642 95.6048C153.294 91.7828 153.764 88.6379 152.933 84.0452C151.883 78.2383 149.174 73.1943 145.796 68.4421C145.055 73.1957 143.785 77.4938 142.13 82.0036C143.738 83.5789 146.431 86.9918 146.459 89.3495C146.466 89.9123 146.279 90.0267 145.982 90.4731L145.145 90.6054C141.733 87.4257 142.445 83.9526 137.177 81.735C136.414 85.8847 135.123 88.9743 131.554 91.4769C127.727 94.1613 122.684 94.5753 118.187 93.7556C114.137 93.0169 110.469 90.9399 108.167 87.4707C106.487 84.94 106.04 82.324 105.493 79.3963C95.9443 81.1873 89.2864 84.0224 83.4998 92.3233C82.4116 93.8841 81.9296 95.6649 80.159 96.5936L79.0717 96.4589C78.6028 94.0503 80.9448 90.4784 82.1121 88.5463C75.4547 85.4369 71.6673 81.1398 69.1341 74.2316C67.2819 69.1808 66.8403 63.4471 64.6051 58.5907C68.4609 54.7323 70.4447 51.3431 70.4461 45.6898C70.4476 41.7917 69.3385 37.9571 66.4786 35.1864C63.5911 32.3886 59.5926 31.2883 55.6494 31.4046C55.5829 31.4066 55.5159 31.4114 55.4494 31.4148C51.6669 32.3683 47.5903 33.8195 45.457 37.341C43.3811 40.767 44.7979 44.3534 43.4461 47.6665C43.2034 48.2613 40.5732 48.9292 39.85 49.4905C35.7228 52.693 34.4414 60.7598 35.7034 65.5013C36.2912 67.7077 37.4003 69.3238 39.318 70.6054L39.8102 70.5424C41.1983 66.2352 41.9696 62.0704 46.3462 59.7385C47.483 59.133 48.7644 58.7525 50.0031 58.422C53.4007 59.2203 56.9827 60.0453 59.0902 63.1126C61.5094 66.6336 59.4645 78.6081 59.2218 82.9623C59.0223 86.5328 58.9932 90.1982 59.2257 93.7687C59.5188 98.2674 60.4799 102.522 62.2258 106.681C63.2519 109.126 64.7628 111.96 67.2276 113.193C67.9352 111.587 67.8348 109.411 68.8711 108.06C69.8564 108.938 70.3752 112.142 70.7762 113.504C74.2369 125.26 81.6141 131.735 94.1489 131.703C92.768 129.042 91.6216 126.509 90.878 123.599L91.1163 123.036C94.0693 124.232 97.3694 131.15 99.8885 133.607C107.075 140.616 120.998 143.849 130.328 139.815C134.275 138.108 138.9 134.135 140.462 130.043C141.273 127.92 141.31 123.14 143.273 121.989L143.771 122.19C144.244 123.606 143.559 126.009 144.326 127.051C145.146 126.451 145.615 125.744 146.181 124.919C150.919 118.794 153.444 112.043 152.461 104.201C152.101 101.327 151.371 98.406 150.642 95.6048ZM58.6961 28.2302C63.8241 29.5671 68.3148 31.3843 71.1038 36.2053C73.7112 40.7118 74.3568 46.7572 72.9157 51.7425C71.9939 54.9324 70.2816 57.5519 68.142 60.0501C70.7106 69.2317 71.8226 79.2639 80.9778 84.4466C81.9762 85.0117 83.0178 85.4829 84.0711 85.9351C88.9142 81.3216 94.3266 77.4841 101.168 76.6959C101.909 76.6106 104.504 76.8268 104.966 76.5796C105.341 76.3794 105.85 75.7274 106.176 75.4138C107.102 75.6155 107.413 75.9688 107.952 76.7739C111.245 81.7002 108.925 87.2642 117.374 89.4542C120.643 90.3015 125.123 90.5565 128.1 88.7688C130.373 87.4043 132.193 85.3748 132.779 82.7437C133.418 79.8747 132.438 77.6212 130.927 75.2354C123.391 69.8672 114.085 73.8729 111.007 71.6446L110.918 71.0368C111.976 69.8754 114.498 68.8066 116.054 68.7121C117.865 68.6025 119.727 68.6874 121.543 68.7155C120.328 63.7515 119.813 56.8364 122.636 52.3266C123.466 51.0019 124.748 49.7411 126.328 49.4236C127.309 49.2263 128.293 49.4202 129.104 50.0155C130.778 51.2442 131.266 53.7793 131.465 55.7192C131.56 56.646 131.792 57.8277 131.12 58.579C130.687 59.0618 130.14 59.4791 129.635 59.8829C130.291 64.8852 132.484 64.8983 130.666 70.6233C131.816 71.3553 133.153 72.1022 134.079 73.1128C135.502 74.6659 137.108 78.3027 138.869 79.1607C140.048 78.5102 140.45 77.09 140.807 75.867C145.145 60.9958 142.86 40.1514 135.303 26.588C129.45 16.2819 119.749 8.71006 108.322 5.52787C103.226 4.08244 97.8024 3.97434 92.5385 4.17405C81.4335 5.30732 71.3591 10.361 64.2314 19.0709C61.8889 21.9332 60.2421 24.8803 58.6961 28.2302ZM53.0313 133.452C52.559 136.413 52.2387 139.279 52.311 142.29L52.6804 142.55C57.4919 145.901 63.9493 146.313 69.5846 145.28C71.6746 144.897 73.869 144.466 75.8095 143.594C76.7113 143.189 77.3282 142.794 78.3305 142.965C78.7193 143.891 78.6693 143.957 78.4509 144.882C76.6677 147.219 71.1596 148.031 68.3799 148.392C63.4378 149.05 58.4122 148.649 53.6371 147.217C54.635 150.349 57.5254 152.699 59.3659 155.38C63.2824 161.087 65.6263 170.817 62.2918 177.286C61.6623 178.507 60.1848 180.533 58.7874 180.883C57.6191 181.176 56.1707 180.757 55.3543 181.665C55.283 183.562 55.0184 185.052 54.3651 186.836C54.6695 187.476 54.6306 187.448 55.3111 187.68C63.5538 190.494 76.4716 185.071 83.9051 181.317C87.7556 179.373 91.6347 177.161 95.1517 174.661C106.872 166.22 115.475 156.819 123.438 144.814C117.838 144.986 112.846 144.771 107.533 142.76C99.1769 151.388 85.5471 159.671 73.1972 159.738C72.2226 159.743 71.4426 159.467 70.5704 159.058L70.3141 158.51C71.9799 156.622 78.8106 156.179 81.4156 155.429C83.6134 154.787 85.766 154 87.8599 153.073C94.0756 150.338 99.9317 146.525 104.676 141.653C101.597 139.774 98.8046 137.797 96.2739 135.192C89.3796 134.678 83.0863 134.244 77.1758 130.246C69.5404 134.131 61.4356 135.972 53.0313 133.452ZM127.014 144.975C113.42 167.941 92.8753 184.505 66.815 191.163C65.8617 191.406 64.9017 191.621 63.9358 191.807C67.4552 192.62 71.1931 193.757 74.8252 193.788C80.3783 193.754 86.1106 193.447 91.5706 194.611C96.2996 195.619 100.62 197.974 105.532 198.162C113.169 198.453 118.865 193.652 126.057 192.809C131.159 192.21 139.953 194.478 143.948 190.48C146.203 188.223 145.623 182.572 145.464 179.61C145.173 174.218 142.288 138.564 140.131 136.34C136.527 140.961 132.531 143.268 127.014 144.975ZM72.1056 227.627C75.3853 227.719 84.9025 229.644 87.2149 227.52C87.6279 227.14 87.6265 226.822 87.7794 226.301C87.3459 223.652 84.6176 221.839 82.8489 220.026C84.8118 220.075 87.0032 220.131 88.4861 221.627C89.7257 222.878 90.5479 224.862 90.4543 226.619C90.4314 227.046 90.3756 227.465 90.3048 227.886L90.5872 228.263C91.9545 228.097 93.6082 228.062 94.478 226.822C94.9372 226.168 95.0517 225.272 94.9027 224.5C94.5071 222.449 92.7059 221.191 91.0527 220.164C90.2004 219.634 88.9608 218.499 88.6996 217.493C88.6686 217.374 88.6491 217.252 88.6239 217.131C90.7979 217.293 94.428 219.309 95.8429 220.913C97.3475 222.62 97.598 225.248 99.1298 226.78C100.373 226.636 101.494 225.673 102.257 224.721C102.793 224.052 102.937 223.189 102.779 222.333C102.42 220.386 100.426 218.938 98.8187 217.996C94.827 215.655 90.3416 214.427 85.7199 214.674C80.8763 215.827 77.4098 218.364 74.731 222.595C73.7214 224.188 72.872 225.904 72.1056 227.627ZM100.467 212.535C102.97 209.235 103.47 205.773 104.049 201.77C97.6679 200.529 91.9851 197.501 85.3418 197.755C84.7807 201.834 84.1128 205.435 82.563 209.288C86.9799 209.191 90.7731 209.989 94.8886 211.488C96.2006 211.966 97.6378 212.687 98.9983 212.979C99.5371 213.094 100.042 212.838 100.467 212.535ZM48.728 61.9105C45.8259 63.7655 43.7378 66.5701 42.9607 69.9423C41.9997 74.1109 42.8103 78.8379 45.1459 82.4282C46.5923 84.6526 49.0939 86.9947 51.7946 87.493C52.958 87.7077 53.9069 87.5376 54.8821 86.8857C55.5601 85.9143 55.5956 84.9643 55.7271 83.8227C56.0261 80.1951 57.1483 74.0939 54.6398 71.0993C54.3724 70.7799 53.8511 70.6573 53.4672 70.4968C52.4493 70.6325 51.5155 70.7494 50.4865 70.667C49.7817 69.9714 49.7327 69.8657 49.5395 68.8933C50.0108 68.1212 50.2487 67.7955 51.1597 67.555C53.5288 66.9297 55.3262 68.6248 57.1424 69.8667C56.7206 67.3762 56.4848 64.5357 54.1724 62.9996C52.6338 61.9778 50.519 61.8363 48.728 61.9105ZM187.592 147.788C188.997 146.539 190.254 145.338 191.384 143.832C188.036 141.196 182.099 138.642 181.376 133.958C181.037 131.761 182.081 129.691 183.412 128.023C183.899 127.412 184.442 126.855 185.001 126.31C185.092 125.15 185.061 123.34 185.631 122.325C185.963 121.734 192.653 114.514 193.449 113.835C195.27 112.284 200.96 113.706 203.325 113.975C206.561 107.097 210.992 99.4578 212.75 92.0964C210.472 92.0474 208.214 91.9743 205.943 92.2011C199.276 92.8089 192.345 92.647 185.644 92.7493C183.158 92.7871 180.501 92.536 178.04 92.8943C177.068 93.0363 176.442 93.1468 175.787 93.917C173.36 96.7681 154.728 141.109 153.232 147.322L153.352 147.85C156.883 148.455 166.805 148.016 170.41 147.318C176.013 147.278 182.069 146.809 187.592 147.788ZM144.014 220.453L144.128 220.828C144.599 222.42 144.587 223.52 144.048 225.111C144.439 225.486 144.25 225.465 144.639 225.453C146.299 225.401 147.767 224.597 148.974 223.501C149.432 222.434 149.358 222.018 148.924 220.889C147.936 218.325 145.527 215.834 143.832 213.679C145.913 214.807 150.256 216.78 151.005 219.105C151.426 220.41 150.877 221.611 151.756 222.74C152.722 222.816 153.056 222.906 153.954 222.491C154.426 221.389 154.359 220.68 153.887 219.547C153.007 217.433 151.603 215.797 149.442 214.954C146.897 213.96 143.747 212.885 141.005 213.09C139.476 213.205 137.914 213.171 136.38 213.211C132.579 215.027 126.709 219.067 124.866 223.016C124.723 223.325 124.735 223.385 124.703 223.678C126.715 225.723 132.6 225.838 135.45 225.838C137.267 225.839 139.283 225.762 140.735 224.546C141.207 223.495 141.549 222.788 141.045 221.629C139.681 218.49 134.887 217.415 133.826 215.153C134.305 214.655 134.465 214.334 135.221 214.291C137.3 214.173 140.839 216.827 142.253 218.246C142.928 218.923 143.507 219.642 144.014 220.453ZM150.27 55.7846C152.856 51.2791 153.414 45.8774 152.064 40.8572C151.269 37.8999 149.623 35.0536 146.876 33.5248C145.63 32.8317 143.998 32.392 142.574 32.3237C142.189 35.4841 144.464 41.4912 145.198 44.8197C146.111 48.9597 146.101 53.2364 146.606 57.4375L147 57.8447C148.342 57.6275 149.371 56.773 150.27 55.7846ZM195.08 116.424C193.876 117.719 193.118 119.01 192.327 120.585C196.682 123.124 201.007 125.439 205.685 127.327C206.59 127.05 207.344 126.664 207.787 125.751C208.284 124.724 207.75 123.036 207.312 122.059C206.257 119.707 204.041 117.856 201.653 116.961C199.563 116.177 197.266 116.168 195.08 116.424ZM158.469 125.128L152.767 121.585C150.353 126.78 146.752 129.275 142.871 133.144C145.176 135.487 147.828 137.283 150.675 138.907L151.979 139.598C153.456 138.673 157.5 127.5 158.469 125.128ZM155.949 225.958C151.777 227.851 147.287 228.95 142.711 229.198C138.056 229.492 133.125 229.379 128.481 228.989C125.08 228.703 111.754 225.563 109.717 227.067L110.258 227.442C115.46 228.399 120.73 229.651 125.979 230.278C134.146 231.253 149.027 231.532 155.767 226.804C155.845 226.75 155.92 226.693 155.996 226.638L156.06 226.074L155.949 225.958ZM105.9 228.552L105.571 227.976L105.342 228.076C100.858 230.018 95.5473 231.54 90.6741 232.062C83.7216 232.805 69.8714 231.794 63.3543 229.81C59.7271 228.706 54.684 225.569 50.9879 225.897C59.3946 232.805 81.1161 233.91 91.639 232.896C96.3938 232.439 102.134 231.67 105.9 228.552ZM198.549 141.342C199.397 140.552 200.225 139.964 200.437 138.768C200.074 137.844 199.771 137.697 198.866 137.256C195.891 135.804 193.008 134.332 190.198 132.556C188.761 131.648 187.36 130.393 185.883 129.603C185.155 131.057 184.201 132.55 184.687 134.229C185.469 136.939 188.341 138.915 190.742 140.063C193.143 141.213 195.925 142.256 198.549 141.342ZM116.334 223.834C120.164 217.296 121.865 213.495 128.161 208.594C126.671 209.096 125.197 209.745 123.6 209.525C123.007 209.156 122.633 209.068 122.46 208.32C121.779 205.377 125.192 202.401 123.807 199.214C122.792 198.51 122.225 198.653 121.052 198.646C116.503 200.078 112.114 201.497 107.37 202.131C106.352 207.193 105.795 211.392 102.379 215.435C104.734 217.643 106.633 219.375 106.779 222.808C106.784 222.92 106.786 223.031 106.789 223.143L111.437 223.707L116.334 223.834ZM190.257 122.434C189.252 123.285 188.305 123.946 187.949 125.28C187.938 126.826 188.46 127.836 189.541 128.933C192.33 131.765 198.218 134.44 202.112 135.419C203.311 134.436 204.619 133.542 204.815 131.881C204.884 131.298 204.784 130.939 204.54 130.418C202.711 128.95 192 122.578 190.257 122.434ZM65.9535 226.558L67.0902 223.038C70.017 216.631 73.8714 212.28 79.7968 208.412C80.5686 205.458 81.2569 202.542 81.5437 199.492C76.5337 198.056 71.1882 196.483 66.0768 195.544C65.1089 200.565 62.9932 208.705 60.1804 212.919C58.6723 215.179 56.3357 217.35 55.2388 219.819C54.6918 221.05 54.7486 221.563 55.1786 222.757C57.3672 225.021 62.8723 226.115 65.9535 226.558ZM55.3669 94.5394C41.0624 108.522 35.086 126.123 34.8477 145.937L34.8229 151.988C30.688 158.638 27.7811 165.423 29.6464 173.436C30.4055 176.698 31.7257 178.779 34.4186 180.746C33.5032 177.763 31.851 172.566 33.2207 169.668L33.8347 169.537C35.4127 175.269 36.2742 182.198 41.856 185.392L42.156 185.177C41.0542 181.67 38.4419 176.079 40.1528 172.415C40.3033 172.092 40.5154 171.875 40.7586 171.623C43.3354 173.385 43.3238 188.124 49.0318 187.102C50.6253 186.816 51.5791 185.458 52.3867 184.188C52.1901 181.419 51.664 178.919 50.8282 176.278C50.2389 173.455 49.9827 168.04 51.5956 165.538C51.7698 165.268 51.8606 165.188 52.0892 164.929L52.8886 164.819C53.888 165.949 53.5545 167.87 53.4681 169.276C53.3696 170.882 53.2653 172.451 53.3405 174.063C54.0375 175.314 54.6403 176.712 55.9392 177.435C56.875 177.588 57.3808 177.742 58.2112 177.131C59.928 175.868 60.4512 172.291 60.5488 170.32C60.8478 164.282 58.2981 158.261 54.2477 153.886C53.0585 152.602 51.5592 151.277 50.6384 149.791C48.9537 147.072 49.2153 141.346 49.3342 138.117C49.5604 131.969 51.198 122.026 55.8475 117.745C56.2862 117.341 56.6847 117.153 57.256 117.012C57.737 117.769 57.6069 118.209 57.4244 119.061C56.7459 122.23 53.3963 126.616 54.4345 129.733C55.2776 130.86 56.2105 131.25 57.5798 131.46C62.7446 132.253 69.8355 130.384 74.2262 127.605C71.8692 124.678 69.9229 122.006 68.4638 118.5C63.4261 116.008 60.2799 112.324 58.4695 107.001C57.6594 104.618 56.5411 95.7333 55.3669 94.5394Z" fill="#404040"/>
    <path d="M108.283 96.2001C111.526 95.4284 116.224 96.2214 119.268 97.5112C122.169 98.74 124.818 100.967 125.95 103.972C126.452 105.302 126.593 106.511 126.014 107.824C125.175 108.398 125.022 108.318 124.042 108.291C123.161 107.052 123.085 105.292 122.356 103.946C121.539 102.439 120.302 101.954 118.75 101.49L118.329 101.366C114.235 100.332 110.066 99.9663 105.867 100.422C102.993 100.734 99.6241 103.975 97.1871 103.72C96.4095 103.64 96.3061 103.259 95.8892 102.689C95.9513 101.864 95.9299 101.581 96.5158 100.93C99.2276 97.9189 104.414 96.4676 108.283 96.2001Z" fill="#404040"/>
    <path d="M55.765 44.9627C56.4722 45.3195 56.4717 45.5609 56.8008 46.2594C56.6955 46.7267 56.579 47.1062 56.3353 47.523C54.5288 50.617 51.617 52.3208 48.2752 53.2655L47.6093 52.9369C48.0014 51.888 54.2875 46.761 55.765 44.9627Z" fill="#404040"/>
    <path d="M82.2043 114.407C82.9858 114.917 83.5779 115.592 84.0492 116.397C84.737 117.571 84.5909 118.363 84.306 119.588C83.4352 118.967 82.5849 118.275 82.1043 117.293C81.6102 116.282 81.8476 115.41 82.2043 114.407Z" fill="#404040"/>
    <path d="M139.968 103.222C140.713 103.772 141.235 104.389 141.521 105.291C141.818 106.229 141.68 107.01 141.252 107.866C140.777 107.774 140.403 107.608 139.954 107.426C139.724 107.076 139.476 106.688 139.372 106.278C139.096 105.191 139.486 104.175 139.968 103.222Z" fill="#404040"/>
    <path d="M67.559 93.2301C67.8842 93.3998 68.1968 93.6727 68.489 93.8889C69.2132 95.4608 69.0176 96.7487 68.5443 98.3672C67.9284 97.9775 67.5474 97.643 67.0717 97.09C66.6145 95.7454 67.1625 94.5345 67.559 93.2301Z" fill="#404040"/>
    <path d="M118.335 126.836C119.112 127.363 119.741 127.987 120.085 128.884C120.448 129.835 120.174 130.66 119.807 131.554C118.936 131.029 118.275 130.519 117.938 129.517C117.613 128.548 117.952 127.727 118.335 126.836Z" fill="#404040"/>
    <path d="M135.262 118.812C135.887 119.609 136.048 120.114 135.996 121.159C135.938 122.334 135.513 123.163 134.635 123.914C134.261 123.362 133.977 122.864 133.892 122.19C133.712 120.778 134.456 119.873 135.262 118.812Z" fill="#404040"/>
    <path d="M101.705 48.7382C102.492 48.7295 103.289 48.759 104.041 49.0135C105.701 49.5753 107.181 51.1657 107.95 52.7124C108.629 54.0774 109.054 56.3396 108.449 57.8316C108.074 58.7579 106.524 59.3109 105.658 59.7127C105.842 62.6492 108.127 65.0868 107.959 68.0334C107.853 69.9142 106.978 71.1192 105.65 72.3329C104.876 72.4837 104.059 72.6756 103.267 72.5719C101.549 72.3465 99.9755 71.3126 98.9116 69.9816C96.4148 66.8575 96.1439 61.4175 96.7264 57.6449C97.2967 53.9548 98.6397 50.9442 101.705 48.7382Z" fill="#404040"/>
    <path d="M100.057 29.9568C101.503 29.8807 102.857 29.9791 104.264 30.3397C107.014 31.0445 110.728 33.0338 112.061 35.6765C112.502 36.5514 112.384 36.9445 112.134 37.8204C109.01 41.0302 102.809 38.07 98.5003 38.2014C96.2622 38.8553 92.3443 41.8227 90.2004 41.2769C89.2029 40.6637 88.6054 40.2134 88.0288 39.1824C87.822 38.0618 87.9701 37.3871 88.636 36.4414C91.3391 32.6024 95.575 30.7202 100.057 29.9568Z" fill="#404040"/>
    <path d="M124.569 35.0119C126.211 34.8151 128.013 34.7289 129.647 34.9959C132.549 35.47 135.454 36.8228 137.117 39.339C137.877 40.4873 138.55 42.4209 138.112 43.8013C137.82 44.7218 137.356 44.8871 136.57 45.2735C135.531 45.2473 135.006 44.6927 134.23 44.0578C127.366 38.1456 125.622 43.7558 121.112 42.1993C120.516 41.9938 119.876 41.4461 119.603 40.8708C119.298 40.2299 119.286 39.4379 119.589 38.7971C120.623 36.6101 122.428 35.8233 124.569 35.0119Z" fill="#404040"/>
    <path d="M131.114 154.335C131.923 154.878 132.087 155.39 132.296 156.305C133.146 160.044 133.871 182.261 132.164 184.961L131.422 184.504C130.185 181.252 130.054 157.942 131.114 154.335Z" fill="#404040"/>
    <path d="M123.339 170.07L123.802 170.409C124.192 171.114 124.225 171.666 124.195 172.47C124.067 175.858 122.911 185.057 120.476 187.264L119.597 186.482C118.914 184.169 122.34 172.776 123.339 170.07Z" fill="#404040"/>
    <path d="M50.9879 225.897C54.684 225.569 59.7271 228.706 63.3543 229.81C69.8714 231.794 83.7216 232.805 90.6741 232.062C95.5473 231.54 100.858 230.018 105.342 228.076L105.571 227.976L105.9 228.552C102.134 231.67 96.3938 232.439 91.639 232.896C81.1161 233.91 59.3946 232.805 50.9879 225.897Z" fill="#404040"/>
    </svg>
    